<?xml version="1.0" encoding="UTF-8" standalone="no"?>
<!DOCTYPE svg PUBLIC "-//W3C//DTD SVG 1.1//EN"
 "http://www.w3.org/Graphics/SVG/1.1/DTD/svg11.dtd">
<!-- Generated by graphviz version 2.40.1 (0)
 -->
<!-- Title: snakemake_dag Pages: 1 -->
<svg width="540pt" height="188pt"
 viewBox="0.00 0.00 540.01 188.00" xmlns="http://www.w3.org/2000/svg" xmlns:xlink="http://www.w3.org/1999/xlink">
<g id="graph0" class="graph" transform="scale(1 1) rotate(0) translate(4 184)">
<title>snakemake_dag</title>
<polygon fill="#ffffff" stroke="transparent" points="-4,4 -4,-184 536.0082,-184 536.0082,4 -4,4"/>
<!-- 0 -->
<g id="node1" class="node">
<title>0</title>
<path fill="none" stroke="#d8ac56" stroke-width="2" d="M217.0082,-36C217.0082,-36 187.0082,-36 187.0082,-36 181.0082,-36 175.0082,-30 175.0082,-24 175.0082,-24 175.0082,-12 175.0082,-12 175.0082,-6 181.0082,0 187.0082,0 187.0082,0 217.0082,0 217.0082,0 223.0082,0 229.0082,-6 229.0082,-12 229.0082,-12 229.0082,-24 229.0082,-24 229.0082,-30 223.0082,-36 217.0082,-36"/>
<text text-anchor="middle" x="202.0082" y="-15.5" font-family="sans" font-size="10.00" fill="#000000">all</text>
</g>
<!-- 1 -->
<g id="node2" class="node">
<title>1</title>
<path fill="none" stroke="#56d8a9" stroke-width="2" d="M112.0082,-108C112.0082,-108 28.0082,-108 28.0082,-108 22.0082,-108 16.0082,-102 16.0082,-96 16.0082,-96 16.0082,-84 16.0082,-84 16.0082,-78 22.0082,-72 28.0082,-72 28.0082,-72 112.0082,-72 112.0082,-72 118.0082,-72 124.0082,-78 124.0082,-84 124.0082,-84 124.0082,-96 124.0082,-96 124.0082,-102 118.0082,-108 112.0082,-108"/>
<text text-anchor="middle" x="70.0082" y="-87.5" font-family="sans" font-size="10.00" fill="#000000">pbrun_deepvariant</text>
</g>
<!-- 1&#45;&gt;0 -->
<g id="edge4" class="edge">
<title>1&#45;&gt;0</title>
<path fill="none" stroke="#c0c0c0" stroke-width="2" d="M103.3173,-71.8314C122.4379,-61.402 146.4557,-48.3013 166.0101,-37.6353"/>
<polygon fill="#c0c0c0" stroke="#c0c0c0" stroke-width="2" points="167.8246,-40.6324 174.9276,-32.7712 164.4726,-34.4872 167.8246,-40.6324"/>
</g>
<!-- 2 -->
<g id="node3" class="node">
<title>2</title>
<path fill="none" stroke="#59d856" stroke-width="2" d="M167.5082,-180C167.5082,-180 104.5082,-180 104.5082,-180 98.5082,-180 92.5082,-174 92.5082,-168 92.5082,-168 92.5082,-156 92.5082,-156 92.5082,-150 98.5082,-144 104.5082,-144 104.5082,-144 167.5082,-144 167.5082,-144 173.5082,-144 179.5082,-150 179.5082,-156 179.5082,-156 179.5082,-168 179.5082,-168 179.5082,-174 173.5082,-180 167.5082,-180"/>
<text text-anchor="middle" x="136.0082" y="-159.5" font-family="sans" font-size="10.00" fill="#000000">pbrun_fq2bam</text>
</g>
<!-- 2&#45;&gt;0 -->
<g id="edge3" class="edge">
<title>2&#45;&gt;0</title>
<path fill="none" stroke="#c0c0c0" stroke-width="2" d="M92.467,-156.2845C62.9174,-149.8905 25.9066,-136.3984 7.0082,-108 -1.8561,-94.6799 -2.6789,-84.7342 7.0082,-72 26.0599,-46.9554 113.9499,-30.5175 164.9968,-22.9058"/>
<polygon fill="#c0c0c0" stroke="#c0c0c0" stroke-width="2" points="165.5932,-26.356 174.988,-21.4584 164.5895,-19.4283 165.5932,-26.356"/>
</g>
<!-- 2&#45;&gt;1 -->
<g id="edge6" class="edge">
<title>2&#45;&gt;1</title>
<path fill="none" stroke="#c0c0c0" stroke-width="2" d="M119.3536,-143.8314C111.5968,-135.3694 102.228,-125.1489 93.7472,-115.8971"/>
<polygon fill="#c0c0c0" stroke="#c0c0c0" stroke-width="2" points="96.2243,-113.4198 86.887,-108.4133 91.0642,-118.1499 96.2243,-113.4198"/>
</g>
<!-- 3 -->
<g id="node4" class="node">
<title>3</title>
<path fill="none" stroke="#afd856" stroke-width="2" d="M250.0082,-108C250.0082,-108 154.0082,-108 154.0082,-108 148.0082,-108 142.0082,-102 142.0082,-96 142.0082,-96 142.0082,-84 142.0082,-84 142.0082,-78 148.0082,-72 154.0082,-72 154.0082,-72 250.0082,-72 250.0082,-72 256.0082,-72 262.0082,-78 262.0082,-84 262.0082,-84 262.0082,-96 262.0082,-96 262.0082,-102 256.0082,-108 250.0082,-108"/>
<text text-anchor="middle" x="202.0082" y="-87.5" font-family="sans" font-size="10.00" fill="#000000">pbrun_mutectcaller_t</text>
</g>
<!-- 2&#45;&gt;3 -->
<g id="edge7" class="edge">
<title>2&#45;&gt;3</title>
<path fill="none" stroke="#c0c0c0" stroke-width="2" d="M152.6628,-143.8314C160.4196,-135.3694 169.7883,-125.1489 178.2692,-115.8971"/>
<polygon fill="#c0c0c0" stroke="#c0c0c0" stroke-width="2" points="180.9521,-118.1499 185.1293,-108.4133 175.792,-113.4198 180.9521,-118.1499"/>
</g>
<!-- 4 -->
<g id="node5" class="node">
<title>4</title>
<path fill="none" stroke="#56a9d8" stroke-width="2" d="M394.0082,-108C394.0082,-108 292.0082,-108 292.0082,-108 286.0082,-108 280.0082,-102 280.0082,-96 280.0082,-96 280.0082,-84 280.0082,-84 280.0082,-78 286.0082,-72 292.0082,-72 292.0082,-72 394.0082,-72 394.0082,-72 400.0082,-72 406.0082,-78 406.0082,-84 406.0082,-84 406.0082,-96 406.0082,-96 406.0082,-102 400.0082,-108 394.0082,-108"/>
<text text-anchor="middle" x="343.0082" y="-87.5" font-family="sans" font-size="10.00" fill="#000000">pbrun_mutectcaller_tn</text>
</g>
<!-- 2&#45;&gt;4 -->
<g id="edge8" class="edge">
<title>2&#45;&gt;4</title>
<path fill="none" stroke="#c0c0c0" stroke-width="2" d="M179.6546,-146.8186C209.2354,-136.5296 248.7545,-122.7839 281.5126,-111.3898"/>
<polygon fill="#c0c0c0" stroke="#c0c0c0" stroke-width="2" points="282.7047,-114.6809 290.9998,-108.0899 280.405,-108.0694 282.7047,-114.6809"/>
</g>
<!-- 3&#45;&gt;0 -->
<g id="edge2" class="edge">
<title>3&#45;&gt;0</title>
<path fill="none" stroke="#c0c0c0" stroke-width="2" d="M202.0082,-71.8314C202.0082,-64.131 202.0082,-54.9743 202.0082,-46.4166"/>
<polygon fill="#c0c0c0" stroke="#c0c0c0" stroke-width="2" points="205.5083,-46.4132 202.0082,-36.4133 198.5083,-46.4133 205.5083,-46.4132"/>
</g>
<!-- 4&#45;&gt;0 -->
<g id="edge5" class="edge">
<title>4&#45;&gt;0</title>
<path fill="none" stroke="#c0c0c0" stroke-width="2" d="M307.4279,-71.8314C286.2503,-61.0173 259.4485,-47.3312 238.1693,-36.4652"/>
<polygon fill="#c0c0c0" stroke="#c0c0c0" stroke-width="2" points="239.6192,-33.2757 229.1213,-31.845 236.4357,-39.51 239.6192,-33.2757"/>
</g>
<!-- 5 -->
<g id="node6" class="node">
<title>5</title>
<path fill="none" stroke="#d85656" stroke-width="2" d="M520.0082,-108C520.0082,-108 436.0082,-108 436.0082,-108 430.0082,-108 424.0082,-102 424.0082,-96 424.0082,-96 424.0082,-84 424.0082,-84 424.0082,-78 430.0082,-72 436.0082,-72 436.0082,-72 520.0082,-72 520.0082,-72 526.0082,-72 532.0082,-78 532.0082,-84 532.0082,-84 532.0082,-96 532.0082,-96 532.0082,-102 526.0082,-108 520.0082,-108"/>
<text text-anchor="middle" x="478.0082" y="-87.5" font-family="sans" font-size="10.00" fill="#000000">pbrun_rna_fq2bam</text>
</g>
<!-- 5&#45;&gt;0 -->
<g id="edge1" class="edge">
<title>5&#45;&gt;0</title>
<path fill="none" stroke="#c0c0c0" stroke-width="2" d="M423.7408,-74.3833C420.7892,-73.5688 417.8638,-72.7697 415.0082,-72 353.5865,-55.4436 281.8089,-37.5446 239.2267,-27.0766"/>
<polygon fill="#c0c0c0" stroke="#c0c0c0" stroke-width="2" points="239.8573,-23.6276 229.3113,-24.6438 238.1892,-30.426 239.8573,-23.6276"/>
</g>
</g>
</svg>
