<?xml version="1.0" encoding="UTF-8" standalone="no"?>
<!DOCTYPE svg PUBLIC "-//W3C//DTD SVG 1.1//EN"
 "http://www.w3.org/Graphics/SVG/1.1/DTD/svg11.dtd">
<!-- Generated by graphviz version 2.40.1 (0)
 -->
<!-- Title: snakemake_dag Pages: 1 -->
<svg width="578pt" height="198pt"
 viewBox="0.00 0.00 578.31 198.00" xmlns="http://www.w3.org/2000/svg" xmlns:xlink="http://www.w3.org/1999/xlink">
<g id="graph0" class="graph" transform="scale(1 1) rotate(0) translate(4 194)">
<title>snakemake_dag</title>
<polygon fill="#ffffff" stroke="transparent" points="-4,4 -4,-194 574.3097,-194 574.3097,4 -4,4"/>
<!-- 0 -->
<g id="node1" class="node">
<title>0</title>
<path fill="none" stroke="#56a9d8" stroke-width="2" d="M265.3097,-36C265.3097,-36 235.3097,-36 235.3097,-36 229.3097,-36 223.3097,-30 223.3097,-24 223.3097,-24 223.3097,-12 223.3097,-12 223.3097,-6 229.3097,0 235.3097,0 235.3097,0 265.3097,0 265.3097,0 271.3097,0 277.3097,-6 277.3097,-12 277.3097,-12 277.3097,-24 277.3097,-24 277.3097,-30 271.3097,-36 265.3097,-36"/>
<text text-anchor="middle" x="250.3097" y="-15.5" font-family="sans" font-size="10.00" fill="#000000">all</text>
</g>
<!-- 1 -->
<g id="node2" class="node">
<title>1</title>
<path fill="none" stroke="#56d8a9" stroke-width="2" d="M112.3097,-110.5C112.3097,-110.5 28.3097,-110.5 28.3097,-110.5 22.3097,-110.5 16.3097,-104.5 16.3097,-98.5 16.3097,-98.5 16.3097,-86.5 16.3097,-86.5 16.3097,-80.5 22.3097,-74.5 28.3097,-74.5 28.3097,-74.5 112.3097,-74.5 112.3097,-74.5 118.3097,-74.5 124.3097,-80.5 124.3097,-86.5 124.3097,-86.5 124.3097,-98.5 124.3097,-98.5 124.3097,-104.5 118.3097,-110.5 112.3097,-110.5"/>
<text text-anchor="middle" x="70.3097" y="-90" font-family="sans" font-size="10.00" fill="#000000">pbrun_deepvariant</text>
</g>
<!-- 1&#45;&gt;0 -->
<g id="edge1" class="edge">
<title>1&#45;&gt;0</title>
<path fill="none" stroke="#c0c0c0" stroke-width="2" d="M113.8827,-74.4656C144.4503,-61.8141 184.8572,-45.0901 213.7473,-33.1328"/>
<polygon fill="#c0c0c0" stroke="#c0c0c0" stroke-width="2" points="215.1711,-36.3315 223.0724,-29.2732 212.494,-29.8636 215.1711,-36.3315"/>
</g>
<!-- 2 -->
<g id="node3" class="node">
<title>2</title>
<path fill="none" stroke="#d85656" stroke-width="2" d="M109.8097,-190C109.8097,-190 30.8097,-190 30.8097,-190 24.8097,-190 18.8097,-184 18.8097,-178 18.8097,-178 18.8097,-161 18.8097,-161 18.8097,-155 24.8097,-149 30.8097,-149 30.8097,-149 109.8097,-149 109.8097,-149 115.8097,-149 121.8097,-155 121.8097,-161 121.8097,-161 121.8097,-178 121.8097,-178 121.8097,-184 115.8097,-190 109.8097,-190"/>
<text text-anchor="middle" x="70.3097" y="-178" font-family="sans" font-size="10.00" fill="#000000">pbrun_fq2bam</text>
<text text-anchor="middle" x="70.3097" y="-167" font-family="sans" font-size="10.00" fill="#000000">sample: NA12878</text>
<text text-anchor="middle" x="70.3097" y="-156" font-family="sans" font-size="10.00" fill="#000000">type: N</text>
</g>
<!-- 2&#45;&gt;0 -->
<g id="edge2" class="edge">
<title>2&#45;&gt;0</title>
<path fill="none" stroke="#c0c0c0" stroke-width="2" d="M37.6398,-148.9486C25.7752,-139.5802 13.7179,-127.3547 7.3097,-113 -.1184,-96.3605 -4.0924,-86.2141 7.3097,-72 32.681,-40.3718 151.4151,-26.0971 213.0134,-20.7291"/>
<polygon fill="#c0c0c0" stroke="#c0c0c0" stroke-width="2" points="213.4278,-24.2067 223.1012,-19.8852 212.8442,-17.2311 213.4278,-24.2067"/>
</g>
<!-- 2&#45;&gt;1 -->
<g id="edge7" class="edge">
<title>2&#45;&gt;1</title>
<path fill="none" stroke="#c0c0c0" stroke-width="2" d="M70.3097,-148.8654C70.3097,-140.1912 70.3097,-129.9623 70.3097,-120.6158"/>
<polygon fill="#c0c0c0" stroke="#c0c0c0" stroke-width="2" points="73.8098,-120.5682 70.3097,-110.5683 66.8098,-120.5683 73.8098,-120.5682"/>
</g>
<!-- 5 -->
<g id="node6" class="node">
<title>5</title>
<path fill="none" stroke="#d8ac56" stroke-width="2" d="M256.3097,-110.5C256.3097,-110.5 154.3097,-110.5 154.3097,-110.5 148.3097,-110.5 142.3097,-104.5 142.3097,-98.5 142.3097,-98.5 142.3097,-86.5 142.3097,-86.5 142.3097,-80.5 148.3097,-74.5 154.3097,-74.5 154.3097,-74.5 256.3097,-74.5 256.3097,-74.5 262.3097,-74.5 268.3097,-80.5 268.3097,-86.5 268.3097,-86.5 268.3097,-98.5 268.3097,-98.5 268.3097,-104.5 262.3097,-110.5 256.3097,-110.5"/>
<text text-anchor="middle" x="205.3097" y="-90" font-family="sans" font-size="10.00" fill="#000000">pbrun_mutectcaller_tn</text>
</g>
<!-- 2&#45;&gt;5 -->
<g id="edge10" class="edge">
<title>2&#45;&gt;5</title>
<path fill="none" stroke="#c0c0c0" stroke-width="2" d="M106.4872,-148.8654C124.4753,-138.6056 146.2766,-126.1707 164.8207,-115.5937"/>
<polygon fill="#c0c0c0" stroke="#c0c0c0" stroke-width="2" points="166.6793,-118.563 173.6316,-110.5683 163.2111,-112.4825 166.6793,-118.563"/>
</g>
<!-- 3 -->
<g id="node4" class="node">
<title>3</title>
<path fill="none" stroke="#d85656" stroke-width="2" d="M335.8097,-190C335.8097,-190 256.8097,-190 256.8097,-190 250.8097,-190 244.8097,-184 244.8097,-178 244.8097,-178 244.8097,-161 244.8097,-161 244.8097,-155 250.8097,-149 256.8097,-149 256.8097,-149 335.8097,-149 335.8097,-149 341.8097,-149 347.8097,-155 347.8097,-161 347.8097,-161 347.8097,-178 347.8097,-178 347.8097,-184 341.8097,-190 335.8097,-190"/>
<text text-anchor="middle" x="296.3097" y="-178" font-family="sans" font-size="10.00" fill="#000000">pbrun_fq2bam</text>
<text text-anchor="middle" x="296.3097" y="-167" font-family="sans" font-size="10.00" fill="#000000">sample: NA12878</text>
<text text-anchor="middle" x="296.3097" y="-156" font-family="sans" font-size="10.00" fill="#000000">type: T</text>
</g>
<!-- 3&#45;&gt;0 -->
<g id="edge3" class="edge">
<title>3&#45;&gt;0</title>
<path fill="none" stroke="#c0c0c0" stroke-width="2" d="M293.9481,-148.9152C291.2689,-128.8889 286.089,-97.7948 277.3097,-72 274.2671,-63.0604 270.022,-53.7248 265.7976,-45.3793"/>
<polygon fill="#c0c0c0" stroke="#c0c0c0" stroke-width="2" points="268.8548,-43.6728 261.1022,-36.4514 262.6593,-46.9312 268.8548,-43.6728"/>
</g>
<!-- 4 -->
<g id="node5" class="node">
<title>4</title>
<path fill="none" stroke="#afd856" stroke-width="2" d="M432.3097,-110.5C432.3097,-110.5 336.3097,-110.5 336.3097,-110.5 330.3097,-110.5 324.3097,-104.5 324.3097,-98.5 324.3097,-98.5 324.3097,-86.5 324.3097,-86.5 324.3097,-80.5 330.3097,-74.5 336.3097,-74.5 336.3097,-74.5 432.3097,-74.5 432.3097,-74.5 438.3097,-74.5 444.3097,-80.5 444.3097,-86.5 444.3097,-86.5 444.3097,-98.5 444.3097,-98.5 444.3097,-104.5 438.3097,-110.5 432.3097,-110.5"/>
<text text-anchor="middle" x="384.3097" y="-90" font-family="sans" font-size="10.00" fill="#000000">pbrun_mutectcaller_t</text>
</g>
<!-- 3&#45;&gt;4 -->
<g id="edge8" class="edge">
<title>3&#45;&gt;4</title>
<path fill="none" stroke="#c0c0c0" stroke-width="2" d="M319.8921,-148.8654C330.9781,-139.1652 344.286,-127.5208 355.9207,-117.3404"/>
<polygon fill="#c0c0c0" stroke="#c0c0c0" stroke-width="2" points="358.4393,-119.7874 363.6603,-110.5683 353.8297,-114.5193 358.4393,-119.7874"/>
</g>
<!-- 3&#45;&gt;5 -->
<g id="edge9" class="edge">
<title>3&#45;&gt;5</title>
<path fill="none" stroke="#c0c0c0" stroke-width="2" d="M271.9234,-148.8654C260.3493,-139.0719 246.4331,-127.2967 234.32,-117.0472"/>
<polygon fill="#c0c0c0" stroke="#c0c0c0" stroke-width="2" points="236.5578,-114.3559 226.6631,-110.5683 232.0362,-119.6996 236.5578,-114.3559"/>
</g>
<!-- 4&#45;&gt;0 -->
<g id="edge4" class="edge">
<title>4&#45;&gt;0</title>
<path fill="none" stroke="#c0c0c0" stroke-width="2" d="M351.8721,-74.4656C332.1243,-63.4865 306.8602,-49.4404 286.4702,-38.1041"/>
<polygon fill="#c0c0c0" stroke="#c0c0c0" stroke-width="2" points="287.9229,-34.9073 277.4821,-33.107 284.5214,-41.0253 287.9229,-34.9073"/>
</g>
<!-- 5&#45;&gt;0 -->
<g id="edge5" class="edge">
<title>5&#45;&gt;0</title>
<path fill="none" stroke="#c0c0c0" stroke-width="2" d="M216.203,-74.4656C221.58,-65.5636 228.175,-54.6453 234.1278,-44.7901"/>
<polygon fill="#c0c0c0" stroke="#c0c0c0" stroke-width="2" points="237.1864,-46.4958 239.3608,-36.1265 231.1946,-42.8766 237.1864,-46.4958"/>
</g>
<!-- 6 -->
<g id="node7" class="node">
<title>6</title>
<path fill="none" stroke="#59d856" stroke-width="2" d="M558.3097,-113C558.3097,-113 474.3097,-113 474.3097,-113 468.3097,-113 462.3097,-107 462.3097,-101 462.3097,-101 462.3097,-84 462.3097,-84 462.3097,-78 468.3097,-72 474.3097,-72 474.3097,-72 558.3097,-72 558.3097,-72 564.3097,-72 570.3097,-78 570.3097,-84 570.3097,-84 570.3097,-101 570.3097,-101 570.3097,-107 564.3097,-113 558.3097,-113"/>
<text text-anchor="middle" x="516.3097" y="-101" font-family="sans" font-size="10.00" fill="#000000">pbrun_rna_fq2bam</text>
<text text-anchor="middle" x="516.3097" y="-90" font-family="sans" font-size="10.00" fill="#000000">sample: NA12878</text>
<text text-anchor="middle" x="516.3097" y="-79" font-family="sans" font-size="10.00" fill="#000000">type: R</text>
</g>
<!-- 6&#45;&gt;0 -->
<g id="edge6" class="edge">
<title>6&#45;&gt;0</title>
<path fill="none" stroke="#c0c0c0" stroke-width="2" d="M462.0722,-74.6434C459.1129,-73.7341 456.1777,-72.8474 453.3097,-72 395.5971,-54.948 327.9404,-37.4422 287.1389,-27.1528"/>
<polygon fill="#c0c0c0" stroke="#c0c0c0" stroke-width="2" points="287.9181,-23.7398 277.3666,-24.6969 286.212,-30.5287 287.9181,-23.7398"/>
</g>
</g>
</svg>
