<?xml version="1.0" encoding="UTF-8" standalone="no"?>
<!DOCTYPE svg PUBLIC "-//W3C//DTD SVG 1.1//EN"
 "http://www.w3.org/Graphics/SVG/1.1/DTD/svg11.dtd">
<!-- Generated by graphviz version 2.47.3 (20210619.2315)
 -->
<!-- Title: snakemake_dag Pages: 1 -->
<svg width="524pt" height="198pt"
 viewBox="0.00 0.00 524.00 198.00" xmlns="http://www.w3.org/2000/svg" xmlns:xlink="http://www.w3.org/1999/xlink">
<g id="graph0" class="graph" transform="scale(1 1) rotate(0) translate(4 194)">
<title>snakemake_dag</title>
<polygon fill="white" stroke="transparent" points="-4,4 -4,-194 520,-194 520,4 -4,4"/>
<!-- 0 -->
<g id="node1" class="node">
<title>0</title>
<path fill="none" stroke="#afd856" stroke-width="2" d="M274,-36C274,-36 244,-36 244,-36 238,-36 232,-30 232,-24 232,-24 232,-12 232,-12 232,-6 238,0 244,0 244,0 274,0 274,0 280,0 286,-6 286,-12 286,-12 286,-24 286,-24 286,-30 280,-36 274,-36"/>
<text text-anchor="middle" x="259" y="-15.5" font-family="sans" font-size="10.00">all</text>
</g>
<!-- 1 -->
<g id="node2" class="node">
<title>1</title>
<path fill="none" stroke="#59d856" stroke-width="2" d="M96,-110.5C96,-110.5 12,-110.5 12,-110.5 6,-110.5 0,-104.5 0,-98.5 0,-98.5 0,-86.5 0,-86.5 0,-80.5 6,-74.5 12,-74.5 12,-74.5 96,-74.5 96,-74.5 102,-74.5 108,-80.5 108,-86.5 108,-86.5 108,-98.5 108,-98.5 108,-104.5 102,-110.5 96,-110.5"/>
<text text-anchor="middle" x="54" y="-90" font-family="sans" font-size="10.00">pbrun_deepvariant</text>
</g>
<!-- 1&#45;&gt;0 -->
<g id="edge1" class="edge">
<title>1&#45;&gt;0</title>
<path fill="none" stroke="grey" stroke-width="2" d="M102.32,-74.41C138.9,-61.47 188.4,-43.97 221.9,-32.12"/>
<polygon fill="grey" stroke="grey" stroke-width="2" points="223.49,-35.27 231.75,-28.64 221.16,-28.67 223.49,-35.27"/>
</g>
<!-- 2 -->
<g id="node3" class="node">
<title>2</title>
<path fill="none" stroke="#d8ac56" stroke-width="2" d="M164.5,-190C164.5,-190 85.5,-190 85.5,-190 79.5,-190 73.5,-184 73.5,-178 73.5,-178 73.5,-161 73.5,-161 73.5,-155 79.5,-149 85.5,-149 85.5,-149 164.5,-149 164.5,-149 170.5,-149 176.5,-155 176.5,-161 176.5,-161 176.5,-178 176.5,-178 176.5,-184 170.5,-190 164.5,-190"/>
<text text-anchor="middle" x="125" y="-178" font-family="sans" font-size="10.00">pbrun_fq2bam</text>
<text text-anchor="middle" x="125" y="-167" font-family="sans" font-size="10.00">sample: NA12878</text>
<text text-anchor="middle" x="125" y="-156" font-family="sans" font-size="10.00">type: N</text>
</g>
<!-- 2&#45;&gt;1 -->
<g id="edge5" class="edge">
<title>2&#45;&gt;1</title>
<path fill="none" stroke="grey" stroke-width="2" d="M106.35,-148.79C97.44,-139.39 86.69,-128.04 77.26,-118.07"/>
<polygon fill="grey" stroke="grey" stroke-width="2" points="79.77,-115.63 70.36,-110.78 74.69,-120.45 79.77,-115.63"/>
</g>
<!-- 5 -->
<g id="node6" class="node">
<title>5</title>
<path fill="none" stroke="#56a9d8" stroke-width="2" d="M240,-110.5C240,-110.5 138,-110.5 138,-110.5 132,-110.5 126,-104.5 126,-98.5 126,-98.5 126,-86.5 126,-86.5 126,-80.5 132,-74.5 138,-74.5 138,-74.5 240,-74.5 240,-74.5 246,-74.5 252,-80.5 252,-86.5 252,-86.5 252,-98.5 252,-98.5 252,-104.5 246,-110.5 240,-110.5"/>
<text text-anchor="middle" x="189" y="-90" font-family="sans" font-size="10.00">pbrun_mutectcaller_tn</text>
</g>
<!-- 2&#45;&gt;5 -->
<g id="edge8" class="edge">
<title>2&#45;&gt;5</title>
<path fill="none" stroke="grey" stroke-width="2" d="M141.82,-148.79C149.69,-139.57 159.15,-128.48 167.53,-118.66"/>
<polygon fill="grey" stroke="grey" stroke-width="2" points="170.43,-120.66 174.26,-110.78 165.1,-116.11 170.43,-120.66"/>
</g>
<!-- 3 -->
<g id="node4" class="node">
<title>3</title>
<path fill="none" stroke="#d85656" stroke-width="2" d="M378,-110.5C378,-110.5 282,-110.5 282,-110.5 276,-110.5 270,-104.5 270,-98.5 270,-98.5 270,-86.5 270,-86.5 270,-80.5 276,-74.5 282,-74.5 282,-74.5 378,-74.5 378,-74.5 384,-74.5 390,-80.5 390,-86.5 390,-86.5 390,-98.5 390,-98.5 390,-104.5 384,-110.5 378,-110.5"/>
<text text-anchor="middle" x="330" y="-90" font-family="sans" font-size="10.00">pbrun_mutectcaller_t</text>
</g>
<!-- 3&#45;&gt;0 -->
<g id="edge2" class="edge">
<title>3&#45;&gt;0</title>
<path fill="none" stroke="grey" stroke-width="2" d="M313.17,-74.32C304.15,-65.11 292.89,-53.6 282.97,-43.47"/>
<polygon fill="grey" stroke="grey" stroke-width="2" points="285.2,-40.75 275.71,-36.06 280.2,-45.65 285.2,-40.75"/>
</g>
<!-- 4 -->
<g id="node5" class="node">
<title>4</title>
<path fill="none" stroke="#d8ac56" stroke-width="2" d="M292.5,-190C292.5,-190 213.5,-190 213.5,-190 207.5,-190 201.5,-184 201.5,-178 201.5,-178 201.5,-161 201.5,-161 201.5,-155 207.5,-149 213.5,-149 213.5,-149 292.5,-149 292.5,-149 298.5,-149 304.5,-155 304.5,-161 304.5,-161 304.5,-178 304.5,-178 304.5,-184 298.5,-190 292.5,-190"/>
<text text-anchor="middle" x="253" y="-178" font-family="sans" font-size="10.00">pbrun_fq2bam</text>
<text text-anchor="middle" x="253" y="-167" font-family="sans" font-size="10.00">sample: NA12878</text>
<text text-anchor="middle" x="253" y="-156" font-family="sans" font-size="10.00">type: T</text>
</g>
<!-- 4&#45;&gt;3 -->
<g id="edge6" class="edge">
<title>4&#45;&gt;3</title>
<path fill="none" stroke="grey" stroke-width="2" d="M273.23,-148.79C283.06,-139.23 294.95,-127.64 305.3,-117.56"/>
<polygon fill="grey" stroke="grey" stroke-width="2" points="307.8,-120.01 312.52,-110.53 302.91,-115 307.8,-120.01"/>
</g>
<!-- 4&#45;&gt;5 -->
<g id="edge7" class="edge">
<title>4&#45;&gt;5</title>
<path fill="none" stroke="grey" stroke-width="2" d="M236.18,-148.79C228.31,-139.57 218.85,-128.48 210.47,-118.66"/>
<polygon fill="grey" stroke="grey" stroke-width="2" points="212.9,-116.11 203.74,-110.78 207.57,-120.66 212.9,-116.11"/>
</g>
<!-- 5&#45;&gt;0 -->
<g id="edge3" class="edge">
<title>5&#45;&gt;0</title>
<path fill="none" stroke="grey" stroke-width="2" d="M205.59,-74.32C214.48,-65.11 225.59,-53.6 235.37,-43.47"/>
<polygon fill="grey" stroke="grey" stroke-width="2" points="238.1,-45.68 242.53,-36.06 233.07,-40.82 238.1,-45.68"/>
</g>
<!-- 6 -->
<g id="node7" class="node">
<title>6</title>
<path fill="none" stroke="#56d8a9" stroke-width="2" d="M504,-113C504,-113 420,-113 420,-113 414,-113 408,-107 408,-101 408,-101 408,-84 408,-84 408,-78 414,-72 420,-72 420,-72 504,-72 504,-72 510,-72 516,-78 516,-84 516,-84 516,-101 516,-101 516,-107 510,-113 504,-113"/>
<text text-anchor="middle" x="462" y="-101" font-family="sans" font-size="10.00">pbrun_rna_fq2bam</text>
<text text-anchor="middle" x="462" y="-90" font-family="sans" font-size="10.00">sample: NA12878</text>
<text text-anchor="middle" x="462" y="-79" font-family="sans" font-size="10.00">type: R</text>
</g>
<!-- 6&#45;&gt;0 -->
<g id="edge4" class="edge">
<title>6&#45;&gt;0</title>
<path fill="none" stroke="grey" stroke-width="2" d="M407.87,-72.17C372.47,-59.52 327.16,-43.34 295.88,-32.17"/>
<polygon fill="grey" stroke="grey" stroke-width="2" points="296.84,-28.8 286.24,-28.73 294.48,-35.39 296.84,-28.8"/>
</g>
</g>
</svg>
